<?xml version="1.0" encoding="iso-8859-1"?>
<!-- Generator: Adobe Illustrator 19.0.0, SVG Export Plug-In . SVG Version: 6.00 Build 0)  -->
<svg version="1.1" id="Layer_1" xmlns="http://www.w3.org/2000/svg" xmlns:xlink="http://www.w3.org/1999/xlink" x="0px" y="0px"
	 viewBox="0 0 512 512" style="enable-background:new 0 0 512 512;" xml:space="preserve">
<g>
	<circle style="fill:#FFFE9F;" cx="82.855" cy="82.855" r="22.261"/>
	<circle style="fill:#FFFE9F;" cx="429.145" cy="82.855" r="22.261"/>
	<circle style="fill:#FFFE9F;" cx="429.145" cy="429.145" r="22.261"/>
	<circle style="fill:#FFFE9F;" cx="82.855" cy="429.145" r="22.261"/>
</g>
<circle style="fill:#4A7DBA;" cx="256" cy="256" r="178.087"/>
<g>
	<path style="fill:#C8F4DE;" d="M402.152,154.236H287.801c-14.051,0-25.441,11.39-25.441,25.441
		c0,14.051,11.39,25.441,25.441,25.441h50.882c14.051,0,25.441,11.39,25.441,25.441c0,14.051-11.39,25.441-25.441,25.441h-25.441
		v0.095c-13.174,0.961-23.571,11.927-23.571,25.346c0,13.42,10.397,24.386,23.571,25.346v0.095h9.541h66.783h37.133
		c4.798-16.122,7.388-33.198,7.388-50.881C434.087,218.16,422.275,183.083,402.152,154.236z"/>
	<path style="fill:#C8F4DE;" d="M188.581,369.636c10.46,0,18.94-8.479,18.94-18.94c0-10.46-8.479-18.94-18.94-18.94h-37.879
		c-10.46,0-18.94-8.479-18.94-18.94c0-10.46,8.479-18.94,18.94-18.94h18.94v-0.07c9.807-0.716,17.547-8.88,17.547-18.869
		s-7.74-18.154-17.547-18.869V256H77.913c0,43.198,15.384,82.8,40.968,113.636H188.581z"/>
</g>
<path d="M437.365,310.056c0.139-0.467,0.256-0.941,0.392-1.409c0.345-1.191,0.674-2.389,0.997-3.588
	c0.222-0.827,0.445-1.653,0.656-2.482c0.412-1.622,0.8-3.252,1.171-4.891c0.147-0.651,0.287-1.305,0.427-1.958
	c0.336-1.567,0.653-3.14,0.951-4.722c0.075-0.397,0.157-0.795,0.229-1.193c0.357-1.971,0.679-3.955,0.974-5.947
	c0.069-0.469,0.131-0.939,0.197-1.409c0.235-1.673,0.449-3.354,0.639-5.041c0.049-0.429,0.102-0.857,0.148-1.286
	c0.216-2.029,0.402-4.067,0.552-6.115c0.027-0.357,0.045-0.717,0.068-1.074c0.116-1.71,0.208-3.426,0.278-5.148
	c0.022-0.546,0.045-1.092,0.062-1.638c0.066-2.045,0.11-4.095,0.11-6.155c0-1.471-0.022-2.941-0.056-4.407
	c-0.009-0.406-0.022-0.811-0.035-1.217c-0.033-1.146-0.077-2.292-0.131-3.436c-0.017-0.344-0.03-0.688-0.049-1.032
	c-0.16-3.051-0.394-6.089-0.698-9.114c-0.01-0.095-0.02-0.189-0.03-0.284c-3.255-31.845-14.471-62.169-32.937-88.643
	c-0.242-0.347-0.505-0.672-0.78-0.986c-34.303-48.427-90.771-80.1-154.5-80.1C151.666,66.783,66.783,151.666,66.783,256
	c0,1.495,0.021,2.987,0.057,4.479c0.016,0.643,0.042,1.283,0.063,1.926c0.028,0.806,0.055,1.611,0.092,2.415
	c0.04,0.869,0.09,1.735,0.142,2.601c0.031,0.518,0.063,1.035,0.099,1.552c0.073,1.071,0.155,2.138,0.246,3.203
	c0.018,0.205,0.037,0.409,0.055,0.612c1.821,20.615,6.96,40.288,14.881,58.484c0.107,0.247,0.216,0.493,0.324,0.74
	c0.395,0.896,0.792,1.79,1.2,2.679c0.362,0.791,0.732,1.577,1.105,2.364c0.183,0.384,0.362,0.771,0.547,1.154
	c6.615,13.726,14.891,26.685,24.721,38.532c0.305,0.368,0.637,0.706,0.983,1.028c34.736,41.214,86.709,67.447,144.702,67.447
	c85.325,0,157.628-56.774,181.148-134.525C437.223,310.482,437.3,310.273,437.365,310.056z M150.702,342.887h37.879
	c4.305,0,7.809,3.503,7.809,7.809c0,4.306-3.503,7.809-7.809,7.809h-64.274c-5.542-7.103-10.524-14.664-14.876-22.617
	c-0.234-0.43-0.465-0.861-0.696-1.294c-0.582-1.087-1.155-2.179-1.714-3.281c-0.658-1.302-1.304-2.61-1.927-3.929
	c-0.187-0.394-0.371-0.789-0.554-1.184c-8.529-18.423-13.689-38.35-15.098-58.753c-0.007-0.106-0.013-0.21-0.02-0.316h78.965
	c0.147,0.017,0.295,0.03,0.443,0.041c4.054,0.296,7.227,3.708,7.227,7.768s-3.174,7.473-7.227,7.768
	c-0.148,0.011-0.296,0.025-0.442,0.041H150.7c-16.58,0-30.07,13.489-30.07,30.07S134.122,342.887,150.702,342.887z M256,422.957
	c-42.486,0-81.309-15.961-110.809-42.19h43.391c16.58,0,30.07-13.489,30.07-30.07c0-16.581-13.489-30.07-30.07-30.07h-37.879
	c-4.305,0-7.809-3.503-7.809-7.809c0-4.306,3.503-7.809,7.809-7.809h18.94c0.809,0,1.597-0.087,2.356-0.254
	c14.88-1.865,26.321-14.672,26.321-29.817c0-15.133-11.423-27.931-26.285-29.812c-0.77-0.168-1.572-0.257-2.393-0.257H89.423
	C95.172,157.981,167.681,89.043,256,89.043c48.565,0,92.349,20.85,122.886,54.062h-91.084c-20.165,0-36.571,16.406-36.571,36.571
	s16.406,36.571,36.571,36.571h50.883c7.89,0,14.309,6.42,14.309,14.309c0,7.891-6.42,14.31-14.309,14.31h-25.441
	c-0.859,0-1.696,0.099-2.5,0.287c-18.19,2.182-32.203,17.801-32.203,36.285c0,18.472,13.993,34.084,32.166,36.281
	c0.815,0.19,1.663,0.29,2.536,0.29h9.54c6.146,0,11.13-4.984,11.13-11.13s-4.984-11.13-11.13-11.13h-8.099
	c-0.209-0.027-0.42-0.049-0.631-0.065c-7.431-0.541-13.251-6.798-13.251-14.246c0-7.447,5.82-13.705,13.251-14.246
	c0.214-0.017,0.427-0.038,0.637-0.066h23.995c20.165,0,36.57-16.406,36.57-36.571s-16.405-36.57-36.57-36.57h-50.883
	c-7.891,0-14.31-6.42-14.31-14.31s6.42-14.31,14.31-14.31H396.15c10.368,15.977,18.086,33.825,22.512,52.923
	c0.006,0.023,0.011,0.048,0.017,0.072c0.284,1.227,0.55,2.46,0.807,3.696c0.081,0.396,0.159,0.794,0.238,1.191
	c0.354,1.773,0.676,3.558,0.973,5.352c0.129,0.785,0.264,1.567,0.383,2.354c0.127,0.839,0.24,1.684,0.355,2.528
	c0.134,0.992,0.258,1.985,0.374,2.98c0.081,0.696,0.167,1.391,0.239,2.089c0.17,1.646,0.321,3.296,0.443,4.95
	c0.036,0.482,0.06,0.967,0.092,1.449c0.089,1.36,0.163,2.721,0.219,4.086c0.022,0.526,0.043,1.053,0.06,1.581
	c0.057,1.79,0.096,3.583,0.096,5.382c0,1.573-0.027,3.143-0.07,4.712c-0.013,0.488-0.038,0.974-0.056,1.461
	c-0.04,1.086-0.085,2.172-0.146,3.256c-0.031,0.565-0.07,1.129-0.108,1.692c-0.067,1.015-0.141,2.029-0.227,3.041
	c-0.048,0.575-0.099,1.149-0.154,1.722c-0.097,1.018-0.205,2.036-0.321,3.051c-0.062,0.55-0.121,1.1-0.189,1.647
	c-0.138,1.113-0.292,2.225-0.452,3.335c-0.063,0.44-0.118,0.88-0.185,1.319c-0.224,1.473-0.469,2.942-0.731,4.407
	c-0.121,0.672-0.257,1.341-0.386,2.011c-0.154,0.801-0.307,1.603-0.473,2.402c-0.176,0.844-0.362,1.683-0.551,2.522
	c-0.131,0.589-0.265,1.176-0.403,1.763c-0.111,0.472-0.23,0.942-0.345,1.411h-28.598c-6.146,0-11.13,4.984-11.13,11.13
	c0,6.146,4.984,11.13,11.13,11.13h21.443C386.339,379.455,326.157,422.957,256,422.957z"/>
<path d="M366.446,302.625c-0.278-0.668-0.623-1.323-1.024-1.924c-0.4-0.613-0.867-1.181-1.38-1.693
	c-0.512-0.512-1.08-0.979-1.692-1.38c-0.601-0.4-1.247-0.746-1.926-1.024c-0.668-0.278-1.368-0.489-2.08-0.633
	c-1.436-0.29-2.905-0.29-4.341,0c-0.712,0.145-1.414,0.355-2.081,0.633c-0.679,0.278-1.323,0.624-1.924,1.024
	c-0.613,0.401-1.181,0.868-1.693,1.38c-0.512,0.512-0.979,1.08-1.391,1.693c-0.401,0.601-0.735,1.258-1.013,1.924
	c-0.278,0.669-0.501,1.369-0.646,2.081c-0.145,0.723-0.21,1.447-0.21,2.17c0,0.735,0.067,1.458,0.21,2.182
	c0.145,0.712,0.367,1.414,0.646,2.081c0.278,0.668,0.612,1.313,1.024,1.914c0.401,0.612,0.868,1.18,1.38,1.692
	c0.512,0.513,1.08,0.981,1.693,1.391c0.601,0.401,1.245,0.747,1.924,1.025c0.669,0.278,1.369,0.489,2.081,0.633
	c0.712,0.145,1.447,0.211,2.17,0.211c0.722,0,1.458-0.068,2.17-0.211c0.712-0.145,1.414-0.355,2.08-0.633
	c0.679-0.278,1.325-0.624,1.926-1.025c0.612-0.411,1.18-0.878,1.692-1.391c2.07-2.069,3.262-4.941,3.262-7.868
	c0-0.723-0.078-1.447-0.223-2.17C366.948,303.994,366.724,303.293,366.446,302.625z"/>
<path d="M512,255.999c-0.001-56.873-19.015-112.226-53.694-156.885c7.082-12.708,5.24-29.091-5.544-39.876
	s-27.167-12.627-39.876-5.544C368.228,19.015,312.874,0,256.001,0c-0.003,0,0.003,0-0.001,0C199.13,0,143.771,19.017,99.114,53.694
	c-12.708-7.081-29.091-5.24-39.876,5.544c-10.784,10.784-12.626,27.167-5.544,39.876C19.015,143.773,0,199.125,0,256
	c0,56.874,19.014,112.228,53.694,156.886c-7.082,12.708-5.24,29.09,5.544,39.876c6.51,6.51,15.061,9.764,23.612,9.764
	c5.615,0,11.226-1.414,16.264-4.221C143.773,492.985,199.127,512,256,512s112.227-19.015,156.885-53.694
	c5.038,2.806,10.648,4.22,16.264,4.22c8.552,0,17.102-3.255,23.612-9.764c10.784-10.784,12.626-27.167,5.544-39.876
	C492.985,368.227,512,312.873,512,255.999z M437.02,74.98c2.103,2.103,3.26,4.897,3.26,7.87c0,2.973-1.158,5.769-3.259,7.87
	c-4.341,4.339-11.403,4.338-15.743,0.001c-4.339-4.34-4.339-11.403,0-15.743c2.103-2.103,4.897-3.26,7.87-3.26
	S434.917,72.879,437.02,74.98z M74.98,74.98c2.103-2.103,4.897-3.26,7.87-3.26c2.973,0,5.769,1.156,7.87,3.259
	c4.339,4.34,4.339,11.403,0.001,15.743c-4.34,4.338-11.402,4.34-15.743,0c-2.103-2.103-3.26-4.897-3.26-7.87
	S72.879,77.083,74.98,74.98z M74.98,437.02c-2.103-2.103-3.26-4.897-3.26-7.87s1.158-5.769,3.259-7.87
	c2.17-2.169,5.021-3.255,7.871-3.255c2.851,0,5.701,1.085,7.87,3.255c4.339,4.34,4.339,11.402,0,15.742
	c-2.103,2.103-4.897,3.26-7.87,3.26C79.878,440.281,77.083,439.121,74.98,437.02z M113.843,441.567
	c4.799-12.029,2.342-26.306-7.381-36.028c0-0.001,0-0.001-0.001-0.001c-9.724-9.721-23.999-12.179-36.029-7.381
	c-64.426-83.812-64.426-200.501,0-284.314c3.976,1.586,8.196,2.383,12.417,2.383c8.552,0,17.102-3.255,23.612-9.764
	c9.722-9.722,12.18-23.999,7.379-36.029c83.813-64.427,200.503-64.425,284.314,0c-4.799,12.029-2.342,26.306,7.381,36.029
	c6.51,6.509,15.059,9.763,23.611,9.763c4.221,0,8.441-0.797,12.417-2.383c64.427,83.812,64.427,200.501,0.001,284.314
	c-12.03-4.801-26.306-2.343-36.029,7.381c-9.721,9.722-12.18,23.999-7.381,36.028C314.349,505.99,197.651,505.99,113.843,441.567z
	 M437.02,437.02c-2.103,2.103-4.897,3.26-7.87,3.26s-5.769-1.158-7.87-3.259c-4.339-4.34-4.339-11.403-0.001-15.743
	c2.17-2.169,5.021-3.255,7.871-3.255c2.85,0,5.701,1.085,7.871,3.255c2.103,2.103,3.259,4.897,3.259,7.87
	S439.121,434.917,437.02,437.02z"/>
<g>
</g>
<g>
</g>
<g>
</g>
<g>
</g>
<g>
</g>
<g>
</g>
<g>
</g>
<g>
</g>
<g>
</g>
<g>
</g>
<g>
</g>
<g>
</g>
<g>
</g>
<g>
</g>
<g>
</g>
</svg>
